<svg width="432" height="232" viewBox="0 0 432 232" fill="none" xmlns="http://www.w3.org/2000/svg">
<g filter="url(#filter0_d_3_425)">
<path d="M59 79C59 76.7909 60.7909 75 63 75H75V91H63C60.7909 91 59 89.2091 59 87V79Z" fill="#0053B8"/>
<g clip-path="url(#clip0_3_425)">
<path d="M63 100H78V114H63C61.3431 114 60 112.657 60 111V103C60 101.343 61.3431 100 63 100Z" fill="#ADCDFB" stroke="#0053B8" stroke-width="2"/>
</g>
<g filter="url(#filter1_d_3_425)">
<rect x="76" y="39" width="280" height="160" rx="8" fill="white"/>
<path d="M76 47C76 42.5817 79.5817 39 84 39H348C352.418 39 356 42.5817 356 47V75H76V47Z" fill="#F2F2F2"/>
<rect x="88" y="49" width="107" height="20" rx="4" fill="#CBCBCB"/>
<rect x="200" y="53" width="12" height="12" rx="6" fill="#CBCBCB"/>
<path d="M304 55.5C304 55.2239 304.224 55 304.5 55H307V54H304.5C303.672 54 303 54.6716 303 55.5V58H304V55.5Z" fill="#6B6B6B"/>
<path d="M312 62.5C312 62.7761 311.776 63 311.5 63H309V64H311.5C312.328 64 313 63.3284 313 62.5V60H312V62.5Z" fill="#6B6B6B"/>
<path d="M304 62.5C304 62.7761 304.224 63 304.5 63H307V64H304.5C303.672 64 303 63.3284 303 62.5V60H304L304 62.5Z" fill="#6B6B6B"/>
<path d="M311.5 55C311.776 55 312 55.2239 312 55.5V58H313V55.5C313 54.6716 312.328 54 311.5 54H309V55L311.5 55Z" fill="#6B6B6B"/>
<path fill-rule="evenodd" clip-rule="evenodd" d="M326.75 59C326.75 58.1716 327.422 57.5 328.25 57.5C329.078 57.5 329.75 58.1716 329.75 59C329.75 59.8284 329.078 60.5 328.25 60.5C327.422 60.5 326.75 59.8284 326.75 59ZM328.25 58.25C327.836 58.25 327.5 58.5858 327.5 59C327.5 59.4142 327.836 59.75 328.25 59.75C328.664 59.75 329 59.4142 329 59C329 58.5858 328.664 58.25 328.25 58.25Z" fill="#6B6B6B"/>
<path fill-rule="evenodd" clip-rule="evenodd" d="M330.5 59C330.5 58.1716 331.172 57.5 332 57.5C332.828 57.5 333.5 58.1716 333.5 59C333.5 59.8284 332.828 60.5 332 60.5C331.172 60.5 330.5 59.8284 330.5 59ZM332 58.25C331.586 58.25 331.25 58.5858 331.25 59C331.25 59.4142 331.586 59.75 332 59.75C332.414 59.75 332.75 59.4142 332.75 59C332.75 58.5858 332.414 58.25 332 58.25Z" fill="#6B6B6B"/>
<path fill-rule="evenodd" clip-rule="evenodd" d="M335.75 57.5C334.922 57.5 334.25 58.1716 334.25 59C334.25 59.8284 334.922 60.5 335.75 60.5C336.578 60.5 337.25 59.8284 337.25 59C337.25 58.1716 336.578 57.5 335.75 57.5ZM335 59C335 58.5858 335.336 58.25 335.75 58.25C336.164 58.25 336.5 58.5858 336.5 59C336.5 59.4142 336.164 59.75 335.75 59.75C335.336 59.75 335 59.4142 335 59Z" fill="#6B6B6B"/>
<rect x="88" y="91" width="256" height="24" rx="3" fill="#F2F2F2"/>
<rect x="88" y="123" width="256" height="24" rx="3" fill="#F2F2F2"/>
<g filter="url(#filter2_d_3_425)">
<rect x="88" y="173" width="12" height="12" rx="2" fill="#0CBB52"/>
<rect x="91" y="176" width="6" height="6" rx="1" fill="white"/>
</g>
<path d="M112.659 178.636C112.659 175.815 110.938 174.153 108.649 174.153C106.357 174.153 104.639 175.815 104.639 178.636C104.639 181.453 106.357 183.119 108.649 183.119C110.938 183.119 112.659 181.457 112.659 178.636ZM111.07 178.636C111.07 180.622 110.072 181.7 108.649 181.7C107.23 181.7 106.229 180.622 106.229 178.636C106.229 176.651 107.23 175.572 108.649 175.572C110.072 175.572 111.07 176.651 111.07 178.636ZM115.628 179.165C115.628 178.219 116.199 177.673 117.013 177.673C117.81 177.673 118.287 178.197 118.287 179.071V183H119.83V178.832C119.834 177.264 118.939 176.369 117.588 176.369C116.608 176.369 115.935 176.838 115.637 177.567H115.56V176.455H114.086V183H115.628V179.165Z" fill="#6B6B6B"/>
<g filter="url(#filter3_d_3_425)">
<rect x="336" y="175" width="8" height="8" rx="2" fill="#A6A6A6"/>
</g>
<rect x="75.5" y="38.5" width="281" height="161" rx="8.5" stroke="#EDEDED"/>
</g>
<path d="M357 75H369C371.209 75 373 76.7909 373 79V87C373 89.2091 371.209 91 369 91H357V75Z" fill="#0053B8"/>
</g>
<rect y="51" width="12" height="12" rx="6" fill="#6100FF"/>
<path d="M7.96137 59V58.153H6.92537V54.114H5.31537L4.14637 55.654L4.81837 56.179L5.81237 54.877H5.87537V58.153H4.55937V59H7.96137Z" fill="white"/>
<line x1="15" y1="56.5" x2="84" y2="56.5" stroke="#6100FF"/>
<rect y="173" width="12" height="12" rx="6" fill="#6100FF"/>
<path d="M7.83537 177.969C7.83537 176.793 7.14937 176.03 5.97337 176.03C4.84637 176.03 4.11837 176.744 4.11837 177.738C4.11837 178.669 4.74837 179.264 5.56737 179.264C6.20437 179.264 6.49837 178.9 6.67337 178.529L6.73637 178.55C6.53337 179.495 5.81237 180.153 4.60137 181H6.05037C6.89737 180.433 7.83537 179.341 7.83537 177.969ZM5.98037 178.459C5.49037 178.459 5.21037 178.193 5.21037 177.71V177.612C5.21037 177.129 5.47637 176.849 5.98037 176.849C6.47737 176.849 6.74337 177.129 6.74337 177.612V177.71C6.74337 178.193 6.45637 178.459 5.98037 178.459Z" fill="white"/>
<line x1="15" y1="178.5" x2="84" y2="178.5" stroke="#6100FF"/>
<line x1="348" y1="178.5" x2="417" y2="178.5" stroke="#6100FF"/>
<rect x="420" y="173" width="12" height="12" rx="6" fill="#6100FF"/>
<path d="M425.863 181V180.153H424.827V176.114H423.217L422.048 177.654L422.72 178.179L423.714 176.877H423.777V180.153H422.461V181H425.863ZM428.1 181.084C429.409 181.084 430.011 180.153 430.011 178.557C430.011 176.961 429.409 176.03 428.1 176.03C426.791 176.03 426.189 176.961 426.189 178.557C426.189 180.153 426.791 181.084 428.1 181.084ZM428.1 180.258C427.477 180.258 427.26 179.789 427.26 179.012V178.102C427.26 177.325 427.477 176.856 428.1 176.856C428.723 176.856 428.94 177.325 428.94 178.102V179.012C428.94 179.789 428.723 180.258 428.1 180.258ZM428.1 178.97C428.422 178.97 428.534 178.823 428.534 178.634V178.48C428.534 178.291 428.422 178.144 428.1 178.144C427.778 178.144 427.666 178.291 427.666 178.48V178.634C427.666 178.823 427.778 178.97 428.1 178.97Z" fill="white"/>
<path d="M348 136H351.5V119.5V103H348" stroke="#6100FF" stroke-linecap="square" stroke-linejoin="round"/>
<line x1="351.5" y1="119" x2="417" y2="119" stroke="#6100FF"/>
<rect x="420" y="113.5" width="12" height="12" rx="6" fill="#6100FF"/>
<path d="M426.001 121.584C427.177 121.584 427.849 120.982 427.849 120.156C427.849 119.526 427.443 119.134 426.876 118.98V118.924C427.359 118.749 427.702 118.385 427.702 117.818C427.702 117.069 427.093 116.53 426.001 116.53C424.909 116.53 424.3 117.069 424.3 117.818C424.3 118.385 424.643 118.749 425.126 118.924V118.98C424.559 119.134 424.153 119.526 424.153 120.156C424.153 120.982 424.825 121.584 426.001 121.584ZM426.001 120.779C425.518 120.779 425.252 120.534 425.252 120.156V120.016C425.252 119.631 425.511 119.393 426.001 119.393C426.491 119.393 426.75 119.631 426.75 120.016V120.156C426.75 120.534 426.484 120.779 426.001 120.779ZM426.001 118.623C425.539 118.623 425.287 118.392 425.287 118.028V117.923C425.287 117.559 425.546 117.335 426.001 117.335C426.456 117.335 426.715 117.559 426.715 117.923V118.028C426.715 118.392 426.463 118.623 426.001 118.623Z" fill="white"/>
<rect y="77" width="12" height="12" rx="6" fill="#6100FF"/>
<path d="M7.57637 80.114H4.54537L4.36337 82.879L5.22437 82.998C5.35737 82.851 5.60937 82.655 6.00137 82.655C6.47037 82.655 6.76437 82.935 6.76437 83.39V83.446C6.76437 83.922 6.49137 84.23 5.97337 84.23C5.45537 84.23 5.17537 83.922 4.95837 83.544L4.19537 84.146C4.49637 84.636 5.00737 85.084 5.96637 85.084C7.18437 85.084 7.87037 84.349 7.87037 83.362C7.87037 82.382 7.18437 81.808 6.37937 81.808C5.77737 81.808 5.46937 82.123 5.26637 82.578H5.20337L5.31537 81.031H7.57637V80.114Z" fill="white"/>
<line x1="15" y1="82.5" x2="55" y2="82.5" stroke="#6100FF"/>
<rect y="101" width="12" height="12" rx="6" fill="#6100FF"/>
<path d="M6.02937 109.084C7.15637 109.084 7.88437 108.37 7.88437 107.376C7.88437 106.445 7.25437 105.85 6.43537 105.85C5.79837 105.85 5.50437 106.214 5.32937 106.585L5.26637 106.564C5.46937 105.619 6.19037 104.961 7.40137 104.114H5.95237C5.10537 104.681 4.16737 105.773 4.16737 107.145C4.16737 108.321 4.85337 109.084 6.02937 109.084ZM6.02237 108.265C5.52537 108.265 5.25937 107.985 5.25937 107.502V107.404C5.25937 106.921 5.54637 106.655 6.02237 106.655C6.51237 106.655 6.79237 106.921 6.79237 107.404V107.502C6.79237 107.985 6.52637 108.265 6.02237 108.265Z" fill="white"/>
<line x1="15" y1="106.5" x2="55" y2="106.5" stroke="#6100FF"/>
<line x1="377" y1="82.5" x2="417" y2="82.5" stroke="#6100FF"/>
<rect x="420" y="77" width="12" height="12" rx="6" fill="#6100FF"/>
<path d="M426.155 85L427.772 81.024V80.114H424.258V81.857H425.147V80.968H426.729L425.049 85H426.155Z" fill="white"/>
<rect x="198.5" width="12" height="12" rx="6" fill="#6100FF"/>
<path d="M206.286 7.118H203.934L204.865 6.397C205.6 5.837 206.181 5.312 206.181 4.5C206.181 3.653 205.565 3.03 204.494 3.03C203.458 3.03 202.884 3.604 202.667 4.276L203.584 4.626C203.689 4.255 203.92 3.94 204.389 3.94C204.795 3.94 205.061 4.157 205.061 4.563V4.633C205.061 5.004 204.844 5.305 204.312 5.76L202.772 7.041V8H206.286V7.118Z" fill="white"/>
<rect x="204" y="15" width="1" height="36" fill="#6100FF"/>
<rect x="302" width="12" height="12" rx="6" fill="#6100FF"/>
<path d="M307.35 5.046V5.921H307.805C308.351 5.921 308.68 6.124 308.68 6.523V6.572C308.68 6.978 308.393 7.23 307.896 7.23C307.357 7.23 307.063 6.943 306.846 6.544L306.069 7.146C306.384 7.636 306.895 8.084 307.875 8.084C309.03 8.084 309.786 7.517 309.786 6.642C309.786 5.97 309.338 5.571 308.743 5.466V5.424C309.261 5.333 309.695 4.948 309.695 4.325C309.695 3.541 309.002 3.03 307.945 3.03C307.091 3.03 306.608 3.366 306.23 3.849L306.895 4.465C307.14 4.094 307.504 3.884 307.903 3.884C308.337 3.884 308.589 4.115 308.589 4.465V4.514C308.589 4.815 308.351 5.046 307.812 5.046H307.35Z" fill="white"/>
<rect x="307.5" y="15" width="1" height="36" fill="#6100FF"/>
<rect x="326" width="12" height="12" rx="6" fill="#6100FF"/>
<path d="M333.282 8V7.062H333.912V6.25H333.282V3.114H332.022L330.076 6.166V7.062H332.274V8H333.282ZM332.211 4.199H332.274V6.25H330.923L332.211 4.199Z" fill="white"/>
<rect x="331.5" y="15" width="1" height="36" fill="#6100FF"/>
<defs>
<filter id="filter0_d_3_425" x="43" y="38" width="346" height="194" filterUnits="userSpaceOnUse" color-interpolation-filters="sRGB">
<feFlood flood-opacity="0" result="BackgroundImageFix"/>
<feColorMatrix in="SourceAlpha" type="matrix" values="0 0 0 0 0 0 0 0 0 0 0 0 0 0 0 0 0 0 127 0" result="hardAlpha"/>
<feMorphology radius="8" operator="erode" in="SourceAlpha" result="effect1_dropShadow_3_425"/>
<feOffset dy="16"/>
<feGaussianBlur stdDeviation="12"/>
<feColorMatrix type="matrix" values="0 0 0 0 0.419608 0 0 0 0 0.419608 0 0 0 0 0.419608 0 0 0 0.24 0"/>
<feBlend mode="normal" in2="BackgroundImageFix" result="effect1_dropShadow_3_425"/>
<feBlend mode="normal" in="SourceGraphic" in2="effect1_dropShadow_3_425" result="shape"/>
</filter>
<filter id="filter1_d_3_425" x="67" y="32" width="298" height="178" filterUnits="userSpaceOnUse" color-interpolation-filters="sRGB">
<feFlood flood-opacity="0" result="BackgroundImageFix"/>
<feColorMatrix in="SourceAlpha" type="matrix" values="0 0 0 0 0 0 0 0 0 0 0 0 0 0 0 0 0 0 127 0" result="hardAlpha"/>
<feOffset dy="2"/>
<feGaussianBlur stdDeviation="4"/>
<feColorMatrix type="matrix" values="0 0 0 0 0 0 0 0 0 0 0 0 0 0 0 0 0 0 0.2 0"/>
<feBlend mode="normal" in2="BackgroundImageFix" result="effect1_dropShadow_3_425"/>
<feBlend mode="normal" in="SourceGraphic" in2="effect1_dropShadow_3_425" result="shape"/>
</filter>
<filter id="filter2_d_3_425" x="84" y="169" width="20" height="20" filterUnits="userSpaceOnUse" color-interpolation-filters="sRGB">
<feFlood flood-opacity="0" result="BackgroundImageFix"/>
<feColorMatrix in="SourceAlpha" type="matrix" values="0 0 0 0 0 0 0 0 0 0 0 0 0 0 0 0 0 0 127 0" result="hardAlpha"/>
<feOffset/>
<feGaussianBlur stdDeviation="2"/>
<feColorMatrix type="matrix" values="0 0 0 0 0 0 0 0 0 0 0 0 0 0 0 0 0 0 0.08 0"/>
<feBlend mode="normal" in2="BackgroundImageFix" result="effect1_dropShadow_3_425"/>
<feBlend mode="normal" in="SourceGraphic" in2="effect1_dropShadow_3_425" result="shape"/>
</filter>
<filter id="filter3_d_3_425" x="332" y="171" width="16" height="16" filterUnits="userSpaceOnUse" color-interpolation-filters="sRGB">
<feFlood flood-opacity="0" result="BackgroundImageFix"/>
<feColorMatrix in="SourceAlpha" type="matrix" values="0 0 0 0 0 0 0 0 0 0 0 0 0 0 0 0 0 0 127 0" result="hardAlpha"/>
<feOffset/>
<feGaussianBlur stdDeviation="2"/>
<feColorMatrix type="matrix" values="0 0 0 0 0 0 0 0 0 0 0 0 0 0 0 0 0 0 0.08 0"/>
<feBlend mode="normal" in2="BackgroundImageFix" result="effect1_dropShadow_3_425"/>
<feBlend mode="normal" in="SourceGraphic" in2="effect1_dropShadow_3_425" result="shape"/>
</filter>
<clipPath id="clip0_3_425">
<path d="M59 103C59 100.791 60.7909 99 63 99H75V115H63C60.7909 115 59 113.209 59 111V103Z" fill="white"/>
</clipPath>
</defs>
</svg>
